<svg version="1.1" xmlns="http://www.w3.org/2000/svg" xmlns:xlink="http://www.w3.org/1999/xlink" width="1540.34619140625" height="802"><defs/><g><g><rect fill="#C0C0C0" stroke="none" x="64" y="311" width="458.3857421875" height="216" transform="matrix(1 0 0 1 -47 -6)" fill-opacity="0.2"/></g><g><rect fill="#ffffff" stroke="none" x="57" y="304" width="458.3857421875" height="216" transform="matrix(1 0 0 1 -47 -6)"/></g><g><path fill="none" stroke="#000000" paint-order="fill stroke markers" d=" M 10 298 L 468.3857421875 298 L 468.3857421875 514 L 10 514 L 10 298 Z Z" stroke-miterlimit="10" stroke-dasharray=""/></g><g><path fill="none" stroke="#000000" paint-order="fill stroke markers" d=" M 10 323 L 468.3857421875 323" stroke-miterlimit="10" stroke-dasharray=""/></g><g><path fill="none" stroke="#000000" paint-order="fill stroke markers" d=" M 10 391 L 468.3857421875 391" stroke-miterlimit="10" stroke-dasharray=""/></g><g><g><path fill="none" stroke="none"/><text fill="#000000" stroke="none" font-family="Arial" font-size="13px" font-style="normal" font-weight="bold" text-decoration="undefined" x="286.69287109375" y="317.5" text-anchor="middle" dominant-baseline="central" transform="matrix(1 0 0 1 -47 -6)">Empleado</text></g></g><g><g><path fill="none" stroke="none"/><text fill="#000000" stroke="none" font-family="Arial" font-size="13px" font-style="normal" font-weight="normal" text-decoration="undefined" x="62" y="340.5" text-anchor="start" dominant-baseline="central" transform="matrix(1 0 0 1 -47 -6)">-idEmpleado : int</text></g></g><g><g><path fill="none" stroke="none"/><text fill="#000000" stroke="none" font-family="Arial" font-size="13px" font-style="normal" font-weight="normal" text-decoration="undefined" x="62" y="355.5" text-anchor="start" dominant-baseline="central" transform="matrix(1 0 0 1 -47 -6)">-nombre : String</text></g></g><g><g><path fill="none" stroke="none"/><text fill="#000000" stroke="none" font-family="Arial" font-size="13px" font-style="normal" font-weight="normal" text-decoration="undefined" x="62" y="370.5" text-anchor="start" dominant-baseline="central" transform="matrix(1 0 0 1 -47 -6)">-apellidos : String</text></g></g><g><g><path fill="none" stroke="none"/><text fill="#000000" stroke="none" font-family="Arial" font-size="13px" font-style="normal" font-weight="normal" text-decoration="undefined" x="62" y="385.5" text-anchor="start" dominant-baseline="central" transform="matrix(1 0 0 1 -47 -6)">-salario : double</text></g></g><g><g><path fill="none" stroke="none"/><text fill="#000000" stroke="none" font-family="Arial" font-size="13px" font-style="normal" font-weight="normal" text-decoration="undefined" x="62" y="408.5" text-anchor="start" dominant-baseline="central" transform="matrix(1 0 0 1 -47 -6)">+Empleado()</text></g></g><g><g><path fill="none" stroke="none"/><text fill="#000000" stroke="none" font-family="Arial" font-size="13px" font-style="normal" font-weight="normal" text-decoration="undefined" x="62" y="423.5" text-anchor="start" dominant-baseline="central" transform="matrix(1 0 0 1 -47 -6)">+Empleado(idEmpleado: int, nombre: String, apellidos: String, salario: double)</text></g></g><g><g><path fill="none" stroke="none"/><text fill="#000000" stroke="none" font-family="Arial" font-size="13px" font-style="normal" font-weight="normal" text-decoration="undefined" x="62" y="438.5" text-anchor="start" dominant-baseline="central" transform="matrix(1 0 0 1 -47 -6)">+getIdEmpleado(): int</text></g></g><g><g><path fill="none" stroke="none"/><text fill="#000000" stroke="none" font-family="Arial" font-size="13px" font-style="normal" font-weight="normal" text-decoration="undefined" x="62" y="453.5" text-anchor="start" dominant-baseline="central" transform="matrix(1 0 0 1 -47 -6)">+getNombre(): String</text></g></g><g><g><path fill="none" stroke="none"/><text fill="#000000" stroke="none" font-family="Arial" font-size="13px" font-style="normal" font-weight="normal" text-decoration="undefined" x="62" y="468.5" text-anchor="start" dominant-baseline="central" transform="matrix(1 0 0 1 -47 -6)">+getApellidos(): String</text></g></g><g><g><path fill="none" stroke="none"/><text fill="#000000" stroke="none" font-family="Arial" font-size="13px" font-style="normal" font-weight="normal" text-decoration="undefined" x="62" y="483.5" text-anchor="start" dominant-baseline="central" transform="matrix(1 0 0 1 -47 -6)">+getSalario(): double</text></g></g><g><g><path fill="none" stroke="none"/><text fill="#000000" stroke="none" font-family="Arial" font-size="13px" font-style="normal" font-weight="normal" text-decoration="undefined" x="62" y="498.5" text-anchor="start" dominant-baseline="central" transform="matrix(1 0 0 1 -47 -6)">+setSalario(salario: double)</text></g></g><g><rect fill="#C0C0C0" stroke="none" x="768" y="599" width="815.34619140625" height="206" transform="matrix(1 0 0 1 -47 -6)" fill-opacity="0.2"/></g><g><rect fill="#ffffff" stroke="none" x="761" y="592" width="815.34619140625" height="206" transform="matrix(1 0 0 1 -47 -6)"/></g><g><path fill="none" stroke="#000000" paint-order="fill stroke markers" d=" M 714 586 L 1529.34619140625 586 L 1529.34619140625 792 L 714 792 L 714 586 Z Z" stroke-miterlimit="10" stroke-dasharray=""/></g><g><path fill="none" stroke="#000000" paint-order="fill stroke markers" d=" M 714 611 L 1529.34619140625 611" stroke-miterlimit="10" stroke-dasharray=""/></g><g><path fill="none" stroke="#000000" paint-order="fill stroke markers" d=" M 714 649 L 1529.34619140625 649" stroke-miterlimit="10" stroke-dasharray=""/></g><g><g><path fill="none" stroke="none"/><text fill="#000000" stroke="none" font-family="Arial" font-size="13px" font-style="normal" font-weight="bold" text-decoration="undefined" x="1169.173095703125" y="605.5" text-anchor="middle" dominant-baseline="central" transform="matrix(1 0 0 1 -47 -6)">Informatico</text></g></g><g><g><path fill="none" stroke="none"/><text fill="#000000" stroke="none" font-family="Arial" font-size="13px" font-style="normal" font-weight="normal" text-decoration="undefined" x="766" y="628.5" text-anchor="start" dominant-baseline="central" transform="matrix(1 0 0 1 -47 -6)">-lenguajeDeProgramacion : String</text></g></g><g><g><path fill="none" stroke="none"/><text fill="#000000" stroke="none" font-family="Arial" font-size="13px" font-style="normal" font-weight="normal" text-decoration="undefined" x="766" y="643.5" text-anchor="start" dominant-baseline="central" transform="matrix(1 0 0 1 -47 -6)">-idProyectoAsignado: int</text></g></g><g><g><path fill="none" stroke="none"/><text fill="#000000" stroke="none" font-family="Arial" font-size="13px" font-style="normal" font-weight="normal" text-decoration="undefined" x="766" y="666.5" text-anchor="start" dominant-baseline="central" transform="matrix(1 0 0 1 -47 -6)">+Informatico()</text></g></g><g><g><path fill="none" stroke="none"/><text fill="#000000" stroke="none" font-family="Arial" font-size="13px" font-style="normal" font-weight="normal" text-decoration="undefined" x="766" y="681.5" text-anchor="start" dominant-baseline="central" transform="matrix(1 0 0 1 -47 -6)">+Informatico(idEmpleado: int, nombre: String, apellidos: String, salario: double, lenguajeDeProgramacion : String, idProyectoAsignado: int)</text></g></g><g><g><path fill="none" stroke="none"/><text fill="#000000" stroke="none" font-family="Arial" font-size="13px" font-style="normal" font-weight="normal" text-decoration="undefined" x="766" y="696.5" text-anchor="start" dominant-baseline="central" transform="matrix(1 0 0 1 -47 -6)">+getLenguajeDeProgramacion(): String</text></g></g><g><g><path fill="none" stroke="none"/><text fill="#000000" stroke="none" font-family="Arial" font-size="13px" font-style="normal" font-weight="normal" text-decoration="undefined" x="766" y="711.5" text-anchor="start" dominant-baseline="central" transform="matrix(1 0 0 1 -47 -6)">+setLenguajeDeProgramacion(lenguajeDeProgramacion: String)</text></g></g><g><g><path fill="none" stroke="none"/><text fill="#000000" stroke="none" font-family="Arial" font-size="13px" font-style="normal" font-weight="normal" text-decoration="undefined" x="766" y="726.5" text-anchor="start" dominant-baseline="central" transform="matrix(1 0 0 1 -47 -6)">+getIdProyectoAsignado(): int</text></g></g><g><g><path fill="none" stroke="none"/><text fill="#000000" stroke="none" font-family="Arial" font-size="13px" font-style="normal" font-weight="normal" text-decoration="undefined" x="766" y="741.5" text-anchor="start" dominant-baseline="central" transform="matrix(1 0 0 1 -47 -6)">+setIdProyectoAsignado(IdProyectoAsignado: int)</text></g></g><g><g><path fill="none" stroke="none"/><text fill="#000000" stroke="none" font-family="Arial" font-size="13px" font-style="normal" font-weight="normal" text-decoration="undefined" x="766" y="756.5" text-anchor="start" dominant-baseline="central" transform="matrix(1 0 0 1 -47 -6)">+programar()</text></g></g><g><g><path fill="none" stroke="none"/><text fill="#000000" stroke="none" font-family="Arial" font-size="13px" font-style="normal" font-weight="normal" text-decoration="undefined" x="766" y="771.5" text-anchor="start" dominant-baseline="central" transform="matrix(1 0 0 1 -47 -6)">+enseñarLenguaje()</text></g></g><g><g><path fill="none" stroke="none"/><text fill="#000000" stroke="none" font-family="Arial" font-size="13px" font-style="normal" font-weight="normal" text-decoration="undefined" x="766" y="786.5" text-anchor="start" dominant-baseline="central" transform="matrix(1 0 0 1 -47 -6)">+aprenderLenguaje()</text></g></g><g><rect fill="#C0C0C0" stroke="none" x="768" y="311" width="815.34619140625" height="206" transform="matrix(1 0 0 1 -47 -6)" fill-opacity="0.2"/></g><g><rect fill="#ffffff" stroke="none" x="761" y="304" width="815.34619140625" height="206" transform="matrix(1 0 0 1 -47 -6)"/></g><g><path fill="none" stroke="#000000" paint-order="fill stroke markers" d=" M 714 298 L 1529.34619140625 298 L 1529.34619140625 504 L 714 504 L 714 298 Z Z" stroke-miterlimit="10" stroke-dasharray=""/></g><g><path fill="none" stroke="#000000" paint-order="fill stroke markers" d=" M 714 323 L 1529.34619140625 323" stroke-miterlimit="10" stroke-dasharray=""/></g><g><path fill="none" stroke="#000000" paint-order="fill stroke markers" d=" M 714 361 L 1529.34619140625 361" stroke-miterlimit="10" stroke-dasharray=""/></g><g><g><path fill="none" stroke="none"/><text fill="#000000" stroke="none" font-family="Arial" font-size="13px" font-style="normal" font-weight="bold" text-decoration="undefined" x="1169.173095703125" y="317.5" text-anchor="middle" dominant-baseline="central" transform="matrix(1 0 0 1 -47 -6)">Contable</text></g></g><g><g><path fill="none" stroke="none"/><text fill="#000000" stroke="none" font-family="Arial" font-size="13px" font-style="normal" font-weight="normal" text-decoration="undefined" x="766" y="340.5" text-anchor="start" dominant-baseline="central" transform="matrix(1 0 0 1 -47 -6)">-cuentaAsignada : int</text></g></g><g><g><path fill="none" stroke="none"/><text fill="#000000" stroke="none" font-family="Arial" font-size="13px" font-style="normal" font-weight="normal" text-decoration="undefined" x="766" y="355.5" text-anchor="start" dominant-baseline="central" transform="matrix(1 0 0 1 -47 -6)">-tipoDeImpuesto: String</text></g></g><g><g><path fill="none" stroke="none"/><text fill="#000000" stroke="none" font-family="Arial" font-size="13px" font-style="normal" font-weight="normal" text-decoration="undefined" x="766" y="378.5" text-anchor="start" dominant-baseline="central" transform="matrix(1 0 0 1 -47 -6)">+Contable()</text></g></g><g><g><path fill="none" stroke="none"/><text fill="#000000" stroke="none" font-family="Arial" font-size="13px" font-style="normal" font-weight="normal" text-decoration="undefined" x="766" y="393.5" text-anchor="start" dominant-baseline="central" transform="matrix(1 0 0 1 -47 -6)">+Contable(idEmpleado: int, nombre: String, apellidos: String, salario: double, cuentaAsignada : int, tipoDeImpuesto: String)</text></g></g><g><g><path fill="none" stroke="none"/><text fill="#000000" stroke="none" font-family="Arial" font-size="13px" font-style="normal" font-weight="normal" text-decoration="undefined" x="766" y="408.5" text-anchor="start" dominant-baseline="central" transform="matrix(1 0 0 1 -47 -6)">+getCuentaAsignada ()</text></g></g><g><g><path fill="none" stroke="none"/><text fill="#000000" stroke="none" font-family="Arial" font-size="13px" font-style="normal" font-weight="normal" text-decoration="undefined" x="766" y="423.5" text-anchor="start" dominant-baseline="central" transform="matrix(1 0 0 1 -47 -6)">+setCuentaAsignada(cuentaAsignada : int)</text></g></g><g><g><path fill="none" stroke="none"/><text fill="#000000" stroke="none" font-family="Arial" font-size="13px" font-style="normal" font-weight="normal" text-decoration="undefined" x="766" y="438.5" text-anchor="start" dominant-baseline="central" transform="matrix(1 0 0 1 -47 -6)">+getTipoDeImpuesto()</text></g></g><g><g><path fill="none" stroke="none"/><text fill="#000000" stroke="none" font-family="Arial" font-size="13px" font-style="normal" font-weight="normal" text-decoration="undefined" x="766" y="453.5" text-anchor="start" dominant-baseline="central" transform="matrix(1 0 0 1 -47 -6)">+setTipoDeImpuesto(tipoDeImpuesto: String)</text></g></g><g><g><path fill="none" stroke="none"/><text fill="#000000" stroke="none" font-family="Arial" font-size="13px" font-style="normal" font-weight="normal" text-decoration="undefined" x="766" y="468.5" text-anchor="start" dominant-baseline="central" transform="matrix(1 0 0 1 -47 -6)">+hacerContabilidad()</text></g></g><g><g><path fill="none" stroke="none"/><text fill="#000000" stroke="none" font-family="Arial" font-size="13px" font-style="normal" font-weight="normal" text-decoration="undefined" x="766" y="483.5" text-anchor="start" dominant-baseline="central" transform="matrix(1 0 0 1 -47 -6)">+enseñarContabilidad()</text></g></g><g><g><path fill="none" stroke="none"/><text fill="#000000" stroke="none" font-family="Arial" font-size="13px" font-style="normal" font-weight="normal" text-decoration="undefined" x="766" y="498.5" text-anchor="start" dominant-baseline="central" transform="matrix(1 0 0 1 -47 -6)">+aprenderContabilidad()</text></g></g><g><rect fill="#C0C0C0" stroke="none" x="768" y="23" width="815.34619140625" height="206" transform="matrix(1 0 0 1 -47 -6)" fill-opacity="0.2"/></g><g><rect fill="#ffffff" stroke="none" x="761" y="16" width="815.34619140625" height="206" transform="matrix(1 0 0 1 -47 -6)"/></g><g><path fill="none" stroke="#000000" paint-order="fill stroke markers" d=" M 714 10 L 1529.34619140625 10 L 1529.34619140625 216 L 714 216 L 714 10 Z Z" stroke-miterlimit="10" stroke-dasharray=""/></g><g><path fill="none" stroke="#000000" paint-order="fill stroke markers" d=" M 714 35 L 1529.34619140625 35" stroke-miterlimit="10" stroke-dasharray=""/></g><g><path fill="none" stroke="#000000" paint-order="fill stroke markers" d=" M 714 73 L 1529.34619140625 73" stroke-miterlimit="10" stroke-dasharray=""/></g><g><g><path fill="none" stroke="none"/><text fill="#000000" stroke="none" font-family="Arial" font-size="13px" font-style="normal" font-weight="bold" text-decoration="undefined" x="1169.173095703125" y="29.5" text-anchor="middle" dominant-baseline="central" transform="matrix(1 0 0 1 -47 -6)">Administrativo</text></g></g><g><g><path fill="none" stroke="none"/><text fill="#000000" stroke="none" font-family="Arial" font-size="13px" font-style="normal" font-weight="normal" text-decoration="undefined" x="766" y="52.5" text-anchor="start" dominant-baseline="central" transform="matrix(1 0 0 1 -47 -6)">-areaDeTrabajo : String</text></g></g><g><g><path fill="none" stroke="none"/><text fill="#000000" stroke="none" font-family="Arial" font-size="13px" font-style="normal" font-weight="normal" text-decoration="undefined" x="766" y="67.5" text-anchor="start" dominant-baseline="central" transform="matrix(1 0 0 1 -47 -6)">-nivelAcceso: int</text></g></g><g><g><path fill="none" stroke="none"/><text fill="#000000" stroke="none" font-family="Arial" font-size="13px" font-style="normal" font-weight="normal" text-decoration="undefined" x="766" y="90.5" text-anchor="start" dominant-baseline="central" transform="matrix(1 0 0 1 -47 -6)">+Administrativo()</text></g></g><g><g><path fill="none" stroke="none"/><text fill="#000000" stroke="none" font-family="Arial" font-size="13px" font-style="normal" font-weight="normal" text-decoration="undefined" x="766" y="105.5" text-anchor="start" dominant-baseline="central" transform="matrix(1 0 0 1 -47 -6)">+Administrativo(idEmpleado: int, nombre: String, apellidos: String, salario: double, areaDeTrabajo : String, nivelAcceso: int)</text></g></g><g><g><path fill="none" stroke="none"/><text fill="#000000" stroke="none" font-family="Arial" font-size="13px" font-style="normal" font-weight="normal" text-decoration="undefined" x="766" y="120.5" text-anchor="start" dominant-baseline="central" transform="matrix(1 0 0 1 -47 -6)">+getAreaDeTrabajo()</text></g></g><g><g><path fill="none" stroke="none"/><text fill="#000000" stroke="none" font-family="Arial" font-size="13px" font-style="normal" font-weight="normal" text-decoration="undefined" x="766" y="135.5" text-anchor="start" dominant-baseline="central" transform="matrix(1 0 0 1 -47 -6)">+setAreaDeTrabajo(areaDeTrabajo : String)</text></g></g><g><g><path fill="none" stroke="none"/><text fill="#000000" stroke="none" font-family="Arial" font-size="13px" font-style="normal" font-weight="normal" text-decoration="undefined" x="766" y="150.5" text-anchor="start" dominant-baseline="central" transform="matrix(1 0 0 1 -47 -6)">+getNivelAcceso()</text></g></g><g><g><path fill="none" stroke="none"/><text fill="#000000" stroke="none" font-family="Arial" font-size="13px" font-style="normal" font-weight="normal" text-decoration="undefined" x="766" y="165.5" text-anchor="start" dominant-baseline="central" transform="matrix(1 0 0 1 -47 -6)">+setNivelAcceso(nivelAcceso: int)</text></g></g><g><g><path fill="none" stroke="none"/><text fill="#000000" stroke="none" font-family="Arial" font-size="13px" font-style="normal" font-weight="normal" text-decoration="undefined" x="766" y="180.5" text-anchor="start" dominant-baseline="central" transform="matrix(1 0 0 1 -47 -6)">+gestionar()</text></g></g><g><g><path fill="none" stroke="none"/><text fill="#000000" stroke="none" font-family="Arial" font-size="13px" font-style="normal" font-weight="normal" text-decoration="undefined" x="766" y="195.5" text-anchor="start" dominant-baseline="central" transform="matrix(1 0 0 1 -47 -6)">+enseñarGestion()</text></g></g><g><g><path fill="none" stroke="none"/><text fill="#000000" stroke="none" font-family="Arial" font-size="13px" font-style="normal" font-weight="normal" text-decoration="undefined" x="766" y="210.5" text-anchor="start" dominant-baseline="central" transform="matrix(1 0 0 1 -47 -6)">+aprenderGestion()</text></g></g><g><path fill="none" stroke="#000000" paint-order="fill stroke markers" d=" M 808 217 L 469 329" stroke-miterlimit="10" stroke-dasharray=""/></g><g><path fill="#FFFFFF" stroke="none" paint-order="stroke fill markers" d=" M 485.6582305158423 314.62977536427974 L 469 329 L 490.9404310474125 330.61786447322896"/></g><g><path fill="none" stroke="#000000" paint-order="fill stroke markers" d=" M 485.6582305158423 314.62977536427974 L 469 329 L 490.9404310474125 330.61786447322896 L 485.6582305158423 314.62977536427974" stroke-miterlimit="10" stroke-dasharray=""/></g><g><path fill="none" stroke="#000000" paint-order="fill stroke markers" d=" M 713 403 L 469 405" stroke-miterlimit="10" stroke-dasharray=""/></g><g><path fill="#FFFFFF" stroke="none" paint-order="stroke fill markers" d=" M 489.2556607880275 396.4146516645877 L 469 405 L 489.3936731274473 413.25215707381"/></g><g><path fill="none" stroke="#000000" paint-order="fill stroke markers" d=" M 489.2556607880275 396.4146516645877 L 469 405 L 489.3936731274473 413.25215707381 L 489.2556607880275 396.4146516645877" stroke-miterlimit="10" stroke-dasharray=""/></g><g><path fill="none" stroke="#000000" paint-order="fill stroke markers" d=" M 797 585 L 469 480" stroke-miterlimit="10" stroke-dasharray=""/></g><g><path fill="#FFFFFF" stroke="none" paint-order="stroke fill markers" d=" M 490.9244731545667 478.17860578273593 L 469 480 L 485.79086384377797 494.2150234392951"/></g><g><path fill="none" stroke="#000000" paint-order="fill stroke markers" d=" M 490.9244731545667 478.17860578273593 L 469 480 L 485.79086384377797 494.2150234392951 L 490.9244731545667 478.17860578273593" stroke-miterlimit="10" stroke-dasharray=""/></g></g></svg>